<svg width="685" height="133" viewBox="0 0 685 133" fill="none" xmlns="http://www.w3.org/2000/svg">
<path d="M0 37.776V25.9324C2.52651 14.0888 11.0778 4.96343 22.5443 3.41016H106.308C117.969 5.35172 127.88 15.4479 129.046 25.9324V95.0523C116.414 77.7722 106.308 91.5574 106.308 72.9183V25.9324H22.5443V37.776C25.4595 65.5403 59.2031 83.8919 88.7436 72.2424L94.3627 93.1831C46.9423 112.987 2.72086 80.8789 0 37.776Z" fill="url(#paint0_radial_348_14)"/>
<path d="M44.372 63.3663L36.8152 43.0074C75.5678 22.2608 124.009 49.7938 129.046 95.3589V108.931C128.272 119.208 118.196 130.066 106.57 131.617H22.6703C10.4632 131.617 0 121.922 0 108.931V38.5065C1.16258 52.079 10.2695 73.0197 22.6703 83.2958L22.8641 108.931H106.57C110.058 67.4381 71.3051 49.018 44.372 63.3663Z" fill="url(#paint1_radial_348_14)"/>
<path d="M198.36 98.8974C192.533 98.8974 187.983 97.7209 184.711 95.3678C181.474 93.0147 179.446 89.3828 178.628 84.472C178.492 82.9715 178.799 81.8461 179.548 81.0959C180.298 80.3456 181.389 79.9705 182.82 79.9705C184.251 79.9705 185.291 80.3115 185.938 80.9936C186.62 81.6756 187.08 82.7328 187.318 84.1651C187.83 86.5182 188.92 88.1381 190.59 89.0247C192.294 89.8773 194.884 90.3036 198.36 90.3036H213.083C217.479 90.3036 220.461 89.5192 222.029 87.9505C223.63 86.3477 224.431 83.3808 224.431 79.0497C224.431 74.6505 223.613 71.6495 221.977 70.0467C220.342 68.4097 217.377 67.5913 213.083 67.5913H200.405C193.964 67.5913 189.176 66.0226 186.04 62.8851C182.939 59.7136 181.389 54.9051 181.389 48.4597C181.389 42.0484 182.922 37.2911 185.989 34.1878C189.091 31.0845 193.862 29.5328 200.303 29.5328H212.469C217.888 29.5328 222.131 30.6411 225.198 32.8578C228.299 35.0745 230.259 38.4677 231.077 43.0374C231.281 44.5038 231.008 45.6292 230.259 46.4136C229.509 47.1638 228.384 47.539 226.885 47.539C225.522 47.539 224.499 47.1809 223.818 46.4647C223.136 45.7486 222.693 44.7084 222.489 43.3443C221.943 41.3323 220.904 39.9682 219.37 39.252C217.837 38.5018 215.536 38.1267 212.469 38.1267H200.303C196.213 38.1267 193.47 38.8599 192.073 40.3263C190.675 41.7586 189.977 44.4697 189.977 48.4597C189.977 52.4838 190.692 55.2461 192.124 56.7467C193.555 58.2472 196.315 58.9974 200.405 58.9974H213.083C219.796 58.9974 224.789 60.6343 228.061 63.9082C231.366 67.182 233.019 72.2292 233.019 79.0497C233.019 85.8361 231.383 90.8492 228.112 94.089C224.84 97.2946 219.83 98.8974 213.083 98.8974H198.36ZM269.404 98.8974C262.622 98.8974 257.579 97.2605 254.273 93.9867C251.001 90.7128 249.365 85.6997 249.365 78.9474V67.0797C249.365 60.2251 251.001 55.1779 254.273 51.9382C257.579 48.6643 262.622 47.0274 269.404 47.0274H277.788C284.604 47.0274 289.648 48.6643 292.919 51.9382C296.191 55.212 297.827 60.2592 297.827 67.0797V78.8451C297.827 85.6315 296.191 90.6787 292.919 93.9867C289.648 97.2605 284.604 98.8974 277.788 98.8974H269.404ZM257.954 78.9474C257.954 83.3467 258.754 86.3477 260.356 87.9505C261.958 89.5192 264.974 90.3036 269.404 90.3036H277.788C282.252 90.3036 285.268 89.5022 286.836 87.8993C288.438 86.2965 289.239 83.2785 289.239 78.8451V67.0797C289.239 62.6123 288.438 59.5942 286.836 58.0255C285.268 56.4227 282.252 55.6213 277.788 55.6213H269.404C266.439 55.6213 264.122 55.9623 262.452 56.6443C260.816 57.2923 259.658 58.4518 258.976 60.1228C258.294 61.7597 257.954 64.0787 257.954 67.0797V78.9474ZM332.055 98.8974C326.841 98.8974 322.956 97.6186 320.4 95.0609C317.878 92.4691 316.617 88.5643 316.617 83.3467V31.1697C316.617 28.3051 318.048 26.8728 320.911 26.8728C323.774 26.8728 325.205 28.3051 325.205 31.1697V83.3467C325.205 86.109 325.648 87.9676 326.534 88.9224C327.454 89.8432 329.295 90.3036 332.055 90.3036C334.986 90.3036 336.451 91.7359 336.451 94.6005C336.554 97.4651 335.088 98.8974 332.055 98.8974ZM393.783 47.0274C396.646 47.0274 398.077 48.4597 398.077 51.3243V94.6005C398.077 97.4651 396.646 98.8974 393.783 98.8974C390.92 98.8974 389.489 97.4651 389.489 94.6005V92.9124C385.876 96.9024 380.56 98.8974 373.54 98.8974H370.677C363.895 98.8974 358.851 97.2605 355.546 93.9867C352.274 90.6787 350.638 85.6315 350.638 78.8451V51.3243C350.638 48.4597 352.069 47.0274 354.932 47.0274C357.795 47.0274 359.226 48.4597 359.226 51.3243V78.8451C359.226 83.2785 360.027 86.2965 361.629 87.8993C363.265 89.5022 366.281 90.3036 370.677 90.3036H373.54C377.629 90.3036 381.19 89.8261 384.224 88.8713C387.291 87.9164 389.046 86.45 389.489 84.472V51.3243C389.489 48.4597 390.92 47.0274 393.783 47.0274ZM441.235 98.8974C434.488 98.8974 429.512 97.2946 426.308 94.089C423.105 90.8833 421.503 85.9384 421.503 79.2543V55.6213H416.494C413.631 55.6213 412.2 54.189 412.2 51.3243C412.2 48.4597 413.631 47.0274 416.494 47.0274H421.503V39.559C421.503 36.6943 422.935 35.262 425.797 35.262C428.66 35.262 430.091 36.6943 430.091 39.559V47.0274H441.849C444.711 47.0274 446.143 48.4597 446.143 51.3243C446.143 54.189 444.711 55.6213 441.849 55.6213H430.091V79.2543C430.091 83.5854 430.875 86.5182 432.443 88.0528C434.01 89.5533 436.941 90.3036 441.235 90.3036C442.564 90.3036 443.604 90.6446 444.354 91.3267C445.137 92.0087 445.529 93.1 445.529 94.6005C445.529 97.4651 444.098 98.8974 441.235 98.8974ZM465.05 38.6382C461.813 38.6382 460.194 37.0013 460.194 33.7274V30.7093C460.194 27.5037 461.813 25.9009 465.05 25.9009H468.015C471.116 25.9009 472.667 27.5037 472.667 30.7093V33.7274C472.667 37.0013 471.116 38.6382 468.015 38.6382H465.05ZM466.482 98.8974C463.619 98.8974 462.187 97.4651 462.187 94.6005V51.3243C462.187 48.4597 463.619 47.0274 466.482 47.0274C469.344 47.0274 470.776 48.4597 470.776 51.3243V94.6005C470.776 97.4651 469.344 98.8974 466.482 98.8974ZM509.626 98.8974C502.844 98.8974 497.801 97.2605 494.495 93.9867C491.223 90.7128 489.587 85.6997 489.587 78.9474V67.0797C489.587 60.2251 491.223 55.1779 494.495 51.9382C497.801 48.6643 502.844 47.0274 509.626 47.0274H518.01C524.826 47.0274 529.87 48.6643 533.141 51.9382C536.413 55.212 538.049 60.2592 538.049 67.0797V78.8451C538.049 85.6315 536.413 90.6787 533.141 93.9867C529.87 97.2605 524.826 98.8974 518.01 98.8974H509.626ZM498.175 78.9474C498.175 83.3467 498.976 86.3477 500.578 87.9505C502.18 89.5192 505.196 90.3036 509.626 90.3036H518.01C522.474 90.3036 525.49 89.5022 527.058 87.8993C528.66 86.2965 529.461 83.2785 529.461 78.8451V67.0797C529.461 62.6123 528.66 59.5942 527.058 58.0255C525.49 56.4227 522.474 55.6213 518.01 55.6213H509.626C506.661 55.6213 504.344 55.9623 502.674 56.6443C501.038 57.2923 499.879 58.4518 499.198 60.1228C498.516 61.7597 498.175 64.0787 498.175 67.0797V78.9474ZM561.131 98.8974C558.268 98.8974 556.837 97.4651 556.837 94.6005V51.3243C556.837 48.4597 558.268 47.0274 561.131 47.0274C563.993 47.0274 565.425 48.4597 565.425 51.3243V53.0124C569.037 49.0224 574.354 47.0274 581.374 47.0274H584.237C591.053 47.0274 596.096 48.6643 599.368 51.9382C602.64 55.212 604.276 60.2592 604.276 67.0797V94.6005C604.276 97.4651 602.844 98.8974 599.981 98.8974C597.119 98.8974 595.687 97.4651 595.687 94.6005V67.0797C595.687 62.6123 594.87 59.5942 593.234 58.0255C591.632 56.4227 588.633 55.6213 584.237 55.6213H581.374C577.285 55.6213 573.723 56.0987 570.69 57.0536C567.657 57.9743 565.902 59.4408 565.425 61.4528V94.6005C565.425 97.4651 563.993 98.8974 561.131 98.8974ZM640.175 98.8974C634.211 98.8974 629.593 97.6527 626.322 95.1632C623.084 92.6396 621.124 88.769 620.443 83.5513C620.307 82.119 620.613 81.0106 621.363 80.2263C622.113 79.4419 623.203 79.0497 624.635 79.0497C627.259 79.0497 628.724 80.482 629.031 83.3467C629.508 86.0067 630.582 87.8311 632.251 88.8201C633.921 89.8091 636.563 90.3036 640.175 90.3036H651.83C656.226 90.3036 659.208 89.5192 660.776 87.9505C662.378 86.3477 663.179 83.3808 663.179 79.0497C663.179 74.7528 662.378 71.8029 660.776 70.2001C659.208 68.5973 656.226 67.7959 651.83 67.7959H643.958C641.095 67.7959 639.664 66.3636 639.664 63.499C639.664 60.6343 641.095 59.202 643.958 59.202H655.715C657.862 59.202 659.362 58.2472 660.214 56.3374C661.1 54.3936 661.543 51.7677 661.543 48.4597C661.543 44.4015 660.81 41.6733 659.345 40.2751C657.913 38.8428 655.204 38.1267 651.217 38.1267H641.3C638.096 38.1267 635.728 38.5529 634.194 39.4055C632.66 40.2581 631.689 41.8438 631.28 44.1628C630.871 46.9592 629.372 48.3574 626.782 48.3574C625.35 48.3574 624.26 47.9823 623.51 47.232C622.76 46.4477 622.488 45.3223 622.692 43.8559C623.374 39.0474 625.248 35.4666 628.315 33.1136C631.417 30.7264 635.745 29.5328 641.3 29.5328H651.217C657.624 29.5328 662.378 31.0845 665.479 34.1878C668.58 37.2911 670.131 42.0484 670.131 48.4597C670.131 54.7687 668.359 59.2361 664.815 61.862C667.166 63.3967 668.904 65.5792 670.029 68.4097C671.187 71.2402 671.767 74.7869 671.767 79.0497C671.767 85.802 670.148 90.7981 666.91 94.0378C663.673 97.2776 658.646 98.8974 651.83 98.8974H640.175Z" fill="black"/>
<defs>
<radialGradient id="paint0_radial_348_14" cx="0" cy="0" r="1" gradientUnits="userSpaceOnUse" gradientTransform="translate(92.8127 82.7129) rotate(-124.377) scale(96.0852 130.367)">
<stop offset="0.0968577" stop-color="#050111" stop-opacity="0"/>
<stop offset="0.255" stop-color="#333025"/>
<stop offset="1" stop-color="#FFE879"/>
</radialGradient>
<radialGradient id="paint1_radial_348_14" cx="0" cy="0" r="1" gradientUnits="userSpaceOnUse" gradientTransform="translate(42.0467 53.2423) rotate(51.6473) scale(90.2457 121.477)">
<stop offset="0.125" stop-opacity="0"/>
<stop offset="0.28" stop-color="#464952"/>
<stop offset="1" stop-color="#D1DAF2"/>
</radialGradient>
</defs>
</svg>
