<svg width="130" height="129" viewBox="0 0 130 129" fill="none" xmlns="http://www.w3.org/2000/svg">
<path d="M0 34.3658V22.5222C2.52651 10.6786 11.0778 1.55327 22.5443 0H106.308C117.969 1.94156 127.88 12.0377 129.046 22.5222V91.6421C116.414 74.362 106.308 88.1473 106.308 69.5082V22.5222H22.5443V34.3658C25.4595 62.1301 59.2031 80.4817 88.7436 68.8323L94.3627 89.773C46.9423 109.577 2.72086 77.4687 0 34.3658Z" fill="url(#paint0_radial_348_25)"/>
<path d="M44.372 59.9561L36.8152 39.5972C75.5678 18.8506 124.009 46.3836 129.046 91.9488V105.521C128.272 115.798 118.196 126.656 106.57 128.207H22.6703C10.4632 128.207 0 118.512 0 105.521V35.0964C1.16258 48.6689 10.2695 69.6095 22.6703 79.8857L22.8641 105.521H106.57C110.058 64.028 71.3051 45.6078 44.372 59.9561Z" fill="url(#paint1_radial_348_25)"/>
<defs>
<radialGradient id="paint0_radial_348_25" cx="0" cy="0" r="1" gradientUnits="userSpaceOnUse" gradientTransform="translate(92.8127 79.3028) rotate(-124.377) scale(96.0852 130.367)">
<stop offset="0.0968577" stop-color="#050111" stop-opacity="0"/>
<stop offset="0.255" stop-color="#464952"/>
<stop offset="1" stop-color="white"/>
</radialGradient>
<radialGradient id="paint1_radial_348_25" cx="0" cy="0" r="1" gradientUnits="userSpaceOnUse" gradientTransform="translate(42.0467 49.8321) rotate(51.6473) scale(90.2457 121.477)">
<stop offset="0.125" stop-opacity="0"/>
<stop offset="0.28" stop-color="#464952"/>
<stop offset="1" stop-color="white"/>
</radialGradient>
</defs>
</svg>
